<svg width="332" height="229" viewBox="0 0 332 229" fill="none" xmlns="http://www.w3.org/2000/svg">
<rect y="217.233" width="11.4333" height="11.4333" fill="#869199"/>
<rect x="11.4336" y="205.8" width="11.4333" height="11.4333" fill="#869199"/>
<rect x="11.4336" y="217.233" width="11.4333" height="11.4333" fill="#869199"/>
<rect x="22.8672" y="194.366" width="11.4333" height="11.4333" fill="#869199"/>
<rect x="22.8672" y="205.8" width="11.4333" height="11.4333" fill="#869199"/>
<rect x="22.8672" y="217.232" width="11.4333" height="11.4333" fill="#869199"/>
<rect x="34.3008" y="182.934" width="11.4333" height="11.4333" fill="#869199"/>
<rect x="34.3008" y="194.367" width="11.4333" height="11.4333" fill="#869199"/>
<rect x="34.3008" y="205.8" width="11.4333" height="11.4333" fill="#869199"/>
<rect x="34.3008" y="217.233" width="11.4333" height="11.4333" fill="#869199"/>
<rect x="45.7324" y="171.5" width="11.4333" height="11.4333" fill="#869199"/>
<rect x="45.7324" y="182.934" width="11.4333" height="11.4333" fill="#869199"/>
<rect x="45.7324" y="194.366" width="11.4333" height="11.4333" fill="#869199"/>
<rect x="45.7324" y="205.8" width="11.4333" height="11.4333" fill="#869199"/>
<rect x="45.7324" y="217.233" width="11.4333" height="11.4333" fill="#869199"/>
<rect x="57.166" y="160.066" width="11.4333" height="11.4333" fill="#869199"/>
<rect x="57.166" y="171.5" width="11.4333" height="11.4333" fill="#869199"/>
<rect x="57.166" y="182.933" width="11.4333" height="11.4333" fill="#869199"/>
<rect x="57.166" y="194.366" width="11.4333" height="11.4333" fill="#869199"/>
<rect x="57.166" y="205.8" width="11.4333" height="11.4333" fill="#869199"/>
<rect x="57.166" y="217.233" width="11.4333" height="11.4333" fill="#869199"/>
<rect x="68.5996" y="148.634" width="11.4333" height="11.4333" fill="#869199"/>
<rect x="68.5996" y="160.067" width="11.4333" height="11.4333" fill="#869199"/>
<rect x="68.5996" y="171.5" width="11.4333" height="11.4333" fill="#869199"/>
<rect x="68.5996" y="182.934" width="11.4333" height="11.4333" fill="#869199"/>
<rect x="68.5996" y="194.367" width="11.4333" height="11.4333" fill="#869199"/>
<rect x="68.5996" y="205.801" width="11.4333" height="11.4333" fill="#869199"/>
<rect x="68.5996" y="217.233" width="11.4333" height="11.4333" fill="#869199"/>
<rect x="80.0332" y="137.2" width="11.4333" height="11.4333" fill="#869199"/>
<rect x="80.0332" y="148.634" width="11.4333" height="11.4333" fill="#869199"/>
<rect x="80.0332" y="160.066" width="11.4333" height="11.4333" fill="#869199"/>
<rect x="80.0332" y="171.5" width="11.4333" height="11.4333" fill="#869199"/>
<rect x="80.0332" y="182.934" width="11.4333" height="11.4333" fill="#869199"/>
<rect x="80.0332" y="194.367" width="11.4333" height="11.4333" fill="#869199"/>
<rect x="80.0332" y="205.8" width="11.4333" height="11.4333" fill="#869199"/>
<rect x="80.0332" y="217.233" width="11.4333" height="11.4333" fill="#869199"/>
<rect x="91.4668" y="125.767" width="11.4333" height="11.4333" fill="#869199"/>
<rect x="91.4668" y="137.2" width="11.4333" height="11.4333" fill="#869199"/>
<rect x="91.4668" y="148.633" width="11.4333" height="11.4333" fill="#869199"/>
<rect x="91.4668" y="160.066" width="11.4333" height="11.4333" fill="#869199"/>
<rect x="91.4668" y="171.5" width="11.4333" height="11.4333" fill="#869199"/>
<rect x="91.4668" y="182.934" width="11.4333" height="11.4333" fill="#869199"/>
<rect x="91.4668" y="194.366" width="11.4333" height="11.4333" fill="#869199"/>
<rect x="91.4668" y="205.8" width="11.4333" height="11.4333" fill="#869199"/>
<rect x="91.4668" y="217.233" width="11.4333" height="11.4333" fill="#869199"/>
<rect x="102.9" y="114.333" width="11.4333" height="11.4333" fill="#869199"/>
<rect x="102.9" y="125.767" width="11.4333" height="11.4333" fill="#869199"/>
<rect x="102.9" y="137.199" width="11.4333" height="11.4333" fill="#869199"/>
<rect x="102.9" y="148.633" width="11.4333" height="11.4333" fill="#869199"/>
<rect x="102.9" y="160.066" width="11.4333" height="11.4333" fill="#869199"/>
<rect x="102.9" y="171.5" width="11.4333" height="11.4333" fill="#869199"/>
<rect x="102.9" y="182.933" width="11.4333" height="11.4333" fill="#869199"/>
<rect x="102.9" y="194.366" width="11.4333" height="11.4333" fill="#869199"/>
<rect x="102.9" y="205.8" width="11.4333" height="11.4333" fill="#869199"/>
<rect x="102.9" y="217.233" width="11.4333" height="11.4333" fill="#869199"/>
<rect x="114.334" y="102.9" width="11.4333" height="11.4333" fill="#869199"/>
<rect x="114.334" y="114.334" width="11.4333" height="11.4333" fill="#869199"/>
<rect x="114.334" y="125.767" width="11.4333" height="11.4333" fill="#869199"/>
<rect x="114.334" y="137.2" width="11.4333" height="11.4333" fill="#869199"/>
<rect x="114.334" y="148.634" width="11.4333" height="11.4333" fill="#869199"/>
<rect x="114.334" y="160.067" width="11.4333" height="11.4333" fill="#869199"/>
<rect x="114.334" y="171.5" width="11.4333" height="11.4333" fill="#869199"/>
<rect x="114.334" y="182.934" width="11.4333" height="11.4333" fill="#869199"/>
<rect x="114.334" y="194.367" width="11.4333" height="11.4333" fill="#869199"/>
<rect x="114.334" y="205.801" width="11.4333" height="11.4333" fill="#869199"/>
<rect x="114.334" y="217.233" width="11.4333" height="11.4333" fill="#869199"/>
<rect x="125.768" y="91.4668" width="11.4333" height="11.4333" fill="#869199"/>
<rect x="125.768" y="102.9" width="11.4333" height="11.4333" fill="#869199"/>
<rect x="125.768" y="114.333" width="11.4333" height="11.4333" fill="#869199"/>
<rect x="125.768" y="125.767" width="11.4333" height="11.4333" fill="#869199"/>
<rect x="125.768" y="137.2" width="11.4333" height="11.4333" fill="#869199"/>
<rect x="125.768" y="148.634" width="11.4333" height="11.4333" fill="#869199"/>
<rect x="125.768" y="160.066" width="11.4333" height="11.4333" fill="#869199"/>
<rect x="125.768" y="171.5" width="11.4333" height="11.4333" fill="#869199"/>
<rect x="125.768" y="182.934" width="11.4333" height="11.4333" fill="#869199"/>
<rect x="125.768" y="194.367" width="11.4333" height="11.4333" fill="#869199"/>
<rect x="125.768" y="205.8" width="11.4333" height="11.4333" fill="#869199"/>
<rect x="125.768" y="217.233" width="11.4333" height="11.4333" fill="#869199"/>
<rect x="137.199" y="80.0332" width="11.4333" height="11.4333" fill="#869199"/>
<rect x="137.199" y="91.4668" width="11.4333" height="11.4333" fill="#869199"/>
<rect x="137.199" y="102.899" width="11.4333" height="11.4333" fill="#869199"/>
<rect x="137.199" y="114.333" width="11.4333" height="11.4333" fill="#869199"/>
<rect x="137.199" y="125.767" width="11.4333" height="11.4333" fill="#869199"/>
<rect x="137.199" y="137.2" width="11.4333" height="11.4333" fill="#869199"/>
<rect x="137.199" y="148.633" width="11.4333" height="11.4333" fill="#869199"/>
<rect x="137.199" y="160.066" width="11.4333" height="11.4333" fill="#869199"/>
<rect x="137.199" y="171.5" width="11.4333" height="11.4333" fill="#869199"/>
<rect x="137.199" y="182.934" width="11.4333" height="11.4333" fill="#869199"/>
<rect x="137.199" y="194.366" width="11.4333" height="11.4333" fill="#869199"/>
<rect x="137.199" y="205.8" width="11.4333" height="11.4333" fill="#869199"/>
<rect x="137.199" y="217.233" width="11.4333" height="11.4333" fill="#869199"/>
<rect x="148.633" y="68.5996" width="11.4333" height="11.4333" fill="#869199"/>
<rect x="148.633" y="80.0332" width="11.4333" height="11.4333" fill="#869199"/>
<rect x="148.633" y="91.4658" width="11.4333" height="11.4333" fill="#869199"/>
<rect x="148.633" y="102.899" width="11.4333" height="11.4333" fill="#869199"/>
<rect x="148.633" y="114.333" width="11.4333" height="11.4333" fill="#869199"/>
<rect x="148.633" y="125.767" width="11.4333" height="11.4333" fill="#869199"/>
<rect x="148.633" y="137.199" width="11.4333" height="11.4333" fill="#869199"/>
<rect x="148.633" y="148.633" width="11.4333" height="11.4333" fill="#869199"/>
<rect x="148.633" y="160.066" width="11.4333" height="11.4333" fill="#869199"/>
<rect x="148.633" y="171.5" width="11.4333" height="11.4333" fill="#869199"/>
<rect x="148.633" y="182.933" width="11.4333" height="11.4333" fill="#869199"/>
<rect x="148.633" y="194.366" width="11.4333" height="11.4333" fill="#869199"/>
<rect x="148.633" y="205.8" width="11.4333" height="11.4333" fill="#869199"/>
<rect x="148.633" y="217.233" width="11.4333" height="11.4333" fill="#869199"/>
<rect x="160.066" y="57.167" width="11.4333" height="11.4333" fill="#869199"/>
<rect x="160.066" y="68.6006" width="11.4333" height="11.4333" fill="#869199"/>
<rect x="160.066" y="80.0332" width="11.4333" height="11.4333" fill="#869199"/>
<rect x="160.066" y="91.4668" width="11.4333" height="11.4333" fill="#869199"/>
<rect x="160.066" y="102.9" width="11.4333" height="11.4333" fill="#869199"/>
<rect x="160.066" y="114.334" width="11.4333" height="11.4333" fill="#869199"/>
<rect x="160.066" y="125.767" width="11.4333" height="11.4333" fill="#869199"/>
<rect x="160.066" y="137.2" width="11.4333" height="11.4333" fill="#869199"/>
<rect x="160.066" y="148.634" width="11.4333" height="11.4333" fill="#869199"/>
<rect x="160.066" y="160.067" width="11.4333" height="11.4333" fill="#869199"/>
<rect x="160.066" y="171.5" width="11.4333" height="11.4333" fill="#869199"/>
<rect x="160.066" y="182.934" width="11.4333" height="11.4333" fill="#869199"/>
<rect x="160.066" y="194.367" width="11.4333" height="11.4333" fill="#869199"/>
<rect x="160.066" y="205.801" width="11.4333" height="11.4333" fill="#869199"/>
<rect x="160.066" y="217.233" width="11.4333" height="11.4333" fill="#869199"/>
<rect x="171.5" y="45.7334" width="11.4333" height="11.4333" fill="#869199"/>
<rect x="171.5" y="57.167" width="11.4333" height="11.4333" fill="#869199"/>
<rect x="171.5" y="68.5996" width="11.4333" height="11.4333" fill="#869199"/>
<rect x="171.5" y="80.0332" width="11.4333" height="11.4333" fill="#869199"/>
<rect x="171.5" y="91.4668" width="11.4333" height="11.4333" fill="#869199"/>
<rect x="171.5" y="102.9" width="11.4333" height="11.4333" fill="#869199"/>
<rect x="171.5" y="114.333" width="11.4333" height="11.4333" fill="#869199"/>
<rect x="171.5" y="125.767" width="11.4333" height="11.4333" fill="#869199"/>
<rect x="171.5" y="137.2" width="11.4333" height="11.4333" fill="#869199"/>
<rect x="171.5" y="148.634" width="11.4333" height="11.4333" fill="#869199"/>
<rect x="171.5" y="160.066" width="11.4333" height="11.4333" fill="#869199"/>
<rect x="171.5" y="171.5" width="11.4333" height="11.4333" fill="#869199"/>
<rect x="171.5" y="182.934" width="11.4333" height="11.4333" fill="#869199"/>
<rect x="171.5" y="194.367" width="11.4333" height="11.4333" fill="#869199"/>
<rect x="171.5" y="205.8" width="11.4333" height="11.4333" fill="#869199"/>
<rect x="171.5" y="217.233" width="11.4333" height="11.4333" fill="#869199"/>
<rect x="182.934" y="34.2998" width="11.4333" height="11.4333" fill="#869199"/>
<rect x="182.934" y="45.7334" width="11.4333" height="11.4333" fill="#869199"/>
<rect x="182.934" y="57.166" width="11.4333" height="11.4333" fill="#869199"/>
<rect x="182.934" y="68.5996" width="11.4333" height="11.4333" fill="#869199"/>
<rect x="182.934" y="80.0332" width="11.4333" height="11.4333" fill="#869199"/>
<rect x="182.934" y="91.4668" width="11.4333" height="11.4333" fill="#869199"/>
<rect x="182.934" y="102.899" width="11.4333" height="11.4333" fill="#869199"/>
<rect x="182.934" y="114.333" width="11.4333" height="11.4333" fill="#869199"/>
<rect x="182.934" y="125.767" width="11.4333" height="11.4333" fill="#869199"/>
<rect x="182.934" y="137.2" width="11.4333" height="11.4333" fill="#869199"/>
<rect x="182.934" y="148.633" width="11.4333" height="11.4333" fill="#869199"/>
<rect x="182.934" y="160.066" width="11.4333" height="11.4333" fill="#869199"/>
<rect x="182.934" y="171.5" width="11.4333" height="11.4333" fill="#869199"/>
<rect x="182.934" y="182.934" width="11.4333" height="11.4333" fill="#869199"/>
<rect x="182.934" y="194.366" width="11.4333" height="11.4333" fill="#869199"/>
<rect x="182.934" y="205.8" width="11.4333" height="11.4333" fill="#869199"/>
<rect x="182.934" y="217.233" width="11.4333" height="11.4333" fill="#869199"/>
<rect x="194.367" y="22.8662" width="11.4333" height="11.4333" fill="#869199"/>
<rect x="194.367" y="34.2998" width="11.4333" height="11.4333" fill="#869199"/>
<rect x="194.367" y="45.7324" width="11.4333" height="11.4333" fill="#869199"/>
<rect x="194.367" y="57.166" width="11.4333" height="11.4333" fill="#869199"/>
<rect x="194.367" y="68.5996" width="11.4333" height="11.4333" fill="#869199"/>
<rect x="194.367" y="80.0332" width="11.4333" height="11.4333" fill="#869199"/>
<rect x="194.367" y="91.4658" width="11.4333" height="11.4333" fill="#869199"/>
<rect x="194.367" y="102.899" width="11.4333" height="11.4333" fill="#869199"/>
<rect x="194.367" y="114.333" width="11.4333" height="11.4333" fill="#869199"/>
<rect x="194.367" y="125.767" width="11.4333" height="11.4333" fill="#869199"/>
<rect x="194.367" y="137.199" width="11.4333" height="11.4333" fill="#869199"/>
<rect x="194.367" y="148.633" width="11.4333" height="11.4333" fill="#869199"/>
<rect x="194.367" y="160.066" width="11.4333" height="11.4333" fill="#869199"/>
<rect x="194.367" y="171.5" width="11.4333" height="11.4333" fill="#869199"/>
<rect x="194.367" y="182.933" width="11.4333" height="11.4333" fill="#869199"/>
<rect x="194.367" y="194.366" width="11.4333" height="11.4333" fill="#869199"/>
<rect x="194.367" y="205.8" width="11.4333" height="11.4333" fill="#869199"/>
<rect x="194.367" y="217.232" width="11.4333" height="11.4333" fill="#869199"/>
<rect x="205.801" y="11.4336" width="11.4333" height="11.4333" fill="#869199"/>
<rect x="205.801" y="22.8672" width="11.4333" height="11.4333" fill="#869199"/>
<rect x="205.801" y="34.2998" width="11.4333" height="11.4333" fill="#869199"/>
<rect x="205.801" y="45.7334" width="11.4333" height="11.4333" fill="#869199"/>
<rect x="205.801" y="57.167" width="11.4333" height="11.4333" fill="#869199"/>
<rect x="205.801" y="68.6006" width="11.4333" height="11.4333" fill="#869199"/>
<rect x="205.801" y="80.0332" width="11.4333" height="11.4333" fill="#869199"/>
<rect x="205.801" y="91.4668" width="11.4333" height="11.4333" fill="#869199"/>
<rect x="205.801" y="102.9" width="11.4333" height="11.4333" fill="#869199"/>
<rect x="205.801" y="114.334" width="11.4333" height="11.4333" fill="#869199"/>
<rect x="205.801" y="125.767" width="11.4333" height="11.4333" fill="#869199"/>
<rect x="205.801" y="137.2" width="11.4333" height="11.4333" fill="#869199"/>
<rect x="205.801" y="148.634" width="11.4333" height="11.4333" fill="#869199"/>
<rect x="205.801" y="160.067" width="11.4333" height="11.4333" fill="#869199"/>
<rect x="205.801" y="171.5" width="11.4333" height="11.4333" fill="#869199"/>
<rect x="205.801" y="182.934" width="11.4333" height="11.4333" fill="#869199"/>
<rect x="205.801" y="194.367" width="11.4333" height="11.4333" fill="#869199"/>
<rect x="205.801" y="205.8" width="11.4333" height="11.4333" fill="#869199"/>
<rect x="205.801" y="217.233" width="11.4333" height="11.4333" fill="#869199"/>
<rect x="217.232" width="11.4333" height="11.4333" fill="#869199"/>
<rect x="217.232" y="11.4336" width="11.4333" height="11.4333" fill="#869199"/>
<rect x="217.232" y="22.8662" width="11.4333" height="11.4333" fill="#869199"/>
<rect x="217.232" y="34.2998" width="11.4333" height="11.4333" fill="#869199"/>
<rect x="217.232" y="45.7334" width="11.4333" height="11.4333" fill="#869199"/>
<rect x="217.232" y="57.167" width="11.4333" height="11.4333" fill="#869199"/>
<rect x="217.232" y="68.5996" width="11.4333" height="11.4333" fill="#869199"/>
<rect x="217.232" y="80.0332" width="11.4333" height="11.4333" fill="#869199"/>
<rect x="217.232" y="91.4668" width="11.4333" height="11.4333" fill="#869199"/>
<rect x="217.232" y="102.9" width="11.4333" height="11.4333" fill="#869199"/>
<rect x="217.232" y="114.333" width="11.4333" height="11.4333" fill="#869199"/>
<rect x="217.232" y="125.767" width="11.4333" height="11.4333" fill="#869199"/>
<rect x="217.232" y="137.2" width="11.4333" height="11.4333" fill="#869199"/>
<rect x="217.232" y="148.634" width="11.4333" height="11.4333" fill="#869199"/>
<rect x="217.232" y="160.066" width="11.4333" height="11.4333" fill="#869199"/>
<rect x="217.232" y="171.5" width="11.4333" height="11.4333" fill="#869199"/>
<rect x="217.232" y="182.934" width="11.4333" height="11.4333" fill="#869199"/>
<rect x="217.232" y="194.366" width="11.4333" height="11.4333" fill="#869199"/>
<rect x="217.232" y="205.8" width="11.4333" height="11.4333" fill="#869199"/>
<rect x="217.232" y="217.233" width="11.4333" height="11.4333" fill="#869199"/>
<rect x="228.666" y="217.233" width="11.4333" height="11.4333" fill="#869199"/>
<rect x="240.1" y="205.8" width="11.4333" height="11.4333" fill="#869199"/>
<rect x="240.1" y="217.233" width="11.4333" height="11.4333" fill="#869199"/>
<rect x="251.533" y="194.366" width="11.4333" height="11.4333" fill="#869199"/>
<rect x="251.533" y="205.8" width="11.4333" height="11.4333" fill="#869199"/>
<rect x="251.533" y="217.232" width="11.4333" height="11.4333" fill="#869199"/>
<rect x="262.967" y="182.934" width="11.4333" height="11.4333" fill="#869199"/>
<rect x="262.967" y="194.367" width="11.4333" height="11.4333" fill="#869199"/>
<rect x="262.967" y="205.8" width="11.4333" height="11.4333" fill="#869199"/>
<rect x="262.967" y="217.233" width="11.4333" height="11.4333" fill="#869199"/>
<rect x="274.4" y="171.5" width="11.4333" height="11.4333" fill="#869199"/>
<rect x="274.4" y="182.934" width="11.4333" height="11.4333" fill="#869199"/>
<rect x="274.4" y="194.366" width="11.4333" height="11.4333" fill="#869199"/>
<rect x="274.4" y="205.8" width="11.4333" height="11.4333" fill="#869199"/>
<rect x="274.4" y="217.233" width="11.4333" height="11.4333" fill="#869199"/>
<rect x="285.834" y="160.066" width="11.4333" height="11.4333" fill="#869199"/>
<rect x="285.834" y="171.5" width="11.4333" height="11.4333" fill="#869199"/>
<rect x="285.834" y="182.933" width="11.4333" height="11.4333" fill="#869199"/>
<rect x="285.834" y="194.366" width="11.4333" height="11.4333" fill="#869199"/>
<rect x="285.834" y="205.8" width="11.4333" height="11.4333" fill="#869199"/>
<rect x="285.834" y="217.233" width="11.4333" height="11.4333" fill="#869199"/>
<rect x="297.268" y="148.634" width="11.4333" height="11.4333" fill="#869199"/>
<rect x="297.268" y="160.067" width="11.4333" height="11.4333" fill="#869199"/>
<rect x="297.268" y="171.5" width="11.4333" height="11.4333" fill="#869199"/>
<rect x="297.268" y="182.934" width="11.4333" height="11.4333" fill="#869199"/>
<rect x="297.268" y="194.367" width="11.4333" height="11.4333" fill="#869199"/>
<rect x="297.268" y="205.801" width="11.4333" height="11.4333" fill="#869199"/>
<rect x="297.268" y="217.233" width="11.4333" height="11.4333" fill="#869199"/>
<rect x="308.699" y="137.2" width="11.4333" height="11.4333" fill="#869199"/>
<rect x="308.699" y="148.634" width="11.4333" height="11.4333" fill="#869199"/>
<rect x="308.699" y="160.066" width="11.4333" height="11.4333" fill="#869199"/>
<rect x="308.699" y="171.5" width="11.4333" height="11.4333" fill="#869199"/>
<rect x="308.699" y="182.934" width="11.4333" height="11.4333" fill="#869199"/>
<rect x="308.699" y="194.367" width="11.4333" height="11.4333" fill="#869199"/>
<rect x="308.699" y="205.8" width="11.4333" height="11.4333" fill="#869199"/>
<rect x="308.699" y="217.233" width="11.4333" height="11.4333" fill="#869199"/>
<rect x="320.133" y="125.767" width="11.4333" height="11.4333" fill="#869199"/>
<rect x="320.133" y="137.2" width="11.4333" height="11.4333" fill="#869199"/>
<rect x="320.133" y="148.633" width="11.4333" height="11.4333" fill="#869199"/>
<rect x="320.133" y="160.066" width="11.4333" height="11.4333" fill="#869199"/>
<rect x="320.133" y="171.5" width="11.4333" height="11.4333" fill="#869199"/>
<rect x="320.133" y="182.934" width="11.4333" height="11.4333" fill="#869199"/>
<rect x="320.133" y="194.366" width="11.4333" height="11.4333" fill="#869199"/>
<rect x="320.133" y="205.8" width="11.4333" height="11.4333" fill="#869199"/>
<rect x="320.133" y="217.233" width="11.4333" height="11.4333" fill="#869199"/>
</svg>
